/* XPM */
static char *ca2f908049a04f19d2a68675f7d884beNcnY3N0SfuCIF8RL[] = {
/* columns rows colors chars-per-pixel */
"64 64 250 2 ",
"   c None",
".  c #7A3801",
"X  c #712E00",
"o  c #813F03",
"O  c #894C0D",
"+  c #9A5405",
"@  c #8C5312",
"#  c #975B15",
"$  c #944E09",
"%  c #A85B01",
"&  c #AC5302",
"*  c #AA6706",
"=  c #B66A01",
"-  c #B87605",
";  c #A76818",
":  c #AD711B",
">  c #B5771A",
",  c #B36E10",
"<  c #A56B22",
"1  c #AB7527",
"2  c #B57C2B",
"3  c #B57A24",
"4  c #A97739",
"5  c #AB7532",
"6  c #9D6122",
"7  c #C47603",
"8  c #C47C13",
"9  c #C06F09",
"0  c #C47F27",
"q  c #AC7C46",
"w  c #BB841C",
"e  c #BA8429",
"r  c #B98737",
"t  c #B68D3C",
"y  c #CB8505",
"u  c #D58904",
"i  c #DA9705",
"p  c #CC8C1C",
"a  c #C68718",
"s  c #D18E18",
"d  c #CC951C",
"f  c #D6961A",
"g  c #CD940B",
"h  c #E29B14",
"j  c #D9A610",
"k  c #E6A518",
"l  c #EDB10B",
"z  c #C48A23",
"x  c #C58928",
"c  c #CD9326",
"v  c #D39322",
"b  c #DA9B23",
"n  c #D49929",
"m  c #C38D34",
"M  c #C98F37",
"N  c #C89739",
"B  c #D39C38",
"V  c #E29F23",
"C  c #DBA529",
"Z  c #D9A637",
"A  c #CFA635",
"S  c #E5AA27",
"D  c #E6B42B",
"F  c #F6B927",
"G  c #E2AB36",
"H  c #E7B438",
"J  c #F3BC3A",
"K  c #F4C61A",
"L  c #FBC838",
"P  c #FDD83B",
"I  c #F6CB2B",
"U  c #FFEA35",
"Y  c #AD854B",
"T  c #B68948",
"R  c #BB9448",
"E  c #A98858",
"W  c #B48D55",
"Q  c #BB9757",
"!  c #B59666",
"~  c #AA9879",
"^  c #AF936E",
"/  c #BDA468",
"(  c #B8A478",
")  c #A1906C",
"_  c #C79949",
"`  c #C59B56",
"'  c #CF9946",
"]  c #CAA84A",
"[  c #D8A746",
"{  c #DCB248",
"}  c #C8A558",
"|  c #D5A957",
" . c #DAB95A",
".. c #E2AE44",
"X. c #E8B747",
"o. c #F1BE48",
"O. c #E8BA56",
"+. c #F0BF5B",
"@. c #C69B64",
"#. c #C7A765",
"$. c #D8B666",
"%. c #C5AA76",
"&. c #CBB379",
"*. c #D6BA7A",
"=. c #CEB46A",
"-. c #E3BD6A",
";. c #F6C44A",
":. c #FBD448",
">. c #EDC457",
",. c #F6C859",
"<. c #F9D65B",
"1. c #E8D050",
"2. c #FBE958",
"3. c #FFF74E",
"4. c #DAC76A",
"5. c #DBC579",
"6. c #DFD57F",
"7. c #EAC669",
"8. c #F7CB65",
"9. c #FED464",
"0. c #FDD56C",
"q. c #FAD868",
"w. c #E7C877",
"e. c #FADB75",
"r. c #EBD074",
"t. c #FDE569",
"y. c #FFFB67",
"u. c #FDEB7C",
"i. c #FCE677",
"p. c #FEF377",
"a. c #ECE374",
"s. c #9C9A99",
"d. c #9D9285",
"f. c #A59D8C",
"g. c #AA9B85",
"h. c #A59D93",
"j. c #B19C84",
"k. c #ACA289",
"l. c #B7A888",
"z. c #ABA394",
"x. c #A4A29C",
"c. c #AAA599",
"v. c #B4AA93",
"b. c #BBAC94",
"n. c #B3AC9C",
"m. c #B5A995",
"M. c #BBB298",
"N. c #BFB687",
"B. c #979BA9",
"V. c #949AB4",
"C. c #8790B5",
"Z. c #9EA2AE",
"A. c #A3A4A4",
"S. c #ACAAA4",
"D. c #ACACAB",
"F. c #A5A6A7",
"G. c #B4AEA4",
"H. c #BCB3A3",
"J. c #B8B4A9",
"K. c #A9ABB2",
"L. c #ADB3BA",
"P. c #B3B3B3",
"I. c #BAB9B8",
"U. c #B4AEB1",
"Y. c #C5AE87",
"T. c #C6B38C",
"R. c #C9B587",
"E. c #D3BB86",
"W. c #C4B493",
"Q. c #C7B99A",
"!. c #D1BE97",
"~. c #C4AF94",
"^. c #CABDA3",
"/. c #C4BBA8",
"(. c #C3BEB4",
"). c #D9C487",
"_. c #CCC19C",
"`. c #D6C49B",
"'. c #DFD48D",
"]. c #EAD689",
"[. c #E2CA95",
"{. c #ECD38D",
"}. c #F9E887",
"|. c #FFF689",
" X c #F6E996",
".X c #FEF393",
"XX c #FFFD93",
"oX c #FFFC9C",
"OX c #FCF29C",
"+X c #ECE390",
"@X c #CCC2A7",
"#X c #D5C8A9",
"$X c #CBC3B4",
"%X c #C4C2BB",
"&X c #CCC6BA",
"*X c #CBC7BA",
"=X c #D3CAB3",
"-X c #D3CCBC",
";X c #D4CAB5",
":X c #DBD2BA",
">X c #DCD4A7",
",X c #E5D7B7",
"<X c #E4D5A6",
"1X c #FEFEAA",
"2X c #FEFCA4",
"3X c #FEFEB4",
"4X c #FFFFBA",
"5X c #F2EBB0",
"6X c #909CC6",
"7X c #98A7D1",
"8X c #B9BBC4",
"9X c #ABB5D1",
"0X c #A9BAEA",
"qX c #BCC2CD",
"wX c #BBCCF5",
"eX c #BECAE1",
"rX c #C3C4C4",
"tX c #CDCBC4",
"yX c #CDCDCB",
"uX c #C5C7C9",
"iX c #D2CEC3",
"pX c #D1CECB",
"aX c #CFD1CD",
"sX c #D4D1C5",
"dX c #D4D3CC",
"fX c #D9D5CB",
"gX c #DCD6C7",
"hX c #C8CBD5",
"jX c #CED2DA",
"kX c #D3D3D3",
"lX c #DBDCDB",
"zX c #D8D9D7",
"xX c #E5DCC7",
"cX c #E3DED6",
"vX c #DDE1DD",
"bX c #FFFFC7",
"nX c #E6E2D7",
"mX c #EEE8CD",
"MX c #C5CCE5",
"NX c #CBD4E7",
"BX c #D5D9E5",
"VX c #C7D6F6",
"CX c #CED7F5",
"ZX c #DBE1EB",
"AX c #D9E8FD",
"SX c #E7E7E6",
"DX c #E7EEF8",
"FX c #F4FEFF",
"GX c #F7FCFC",
"HX c #EFF8F6",
/* pixels */
"                                                                                                                                ",
"                                                          # * ; * ; ;                                                           ",
"                                                ; 3 N |  .7.w.r.7.O.O.O.[ M e 3                                                 ",
"                                          ; T $.].4X4XoX1X|.u.i.}.}.}.,.>.0.0.>.[ B m                                           ",
"                                      < }  XbX.Xt.X.[ ..O.q.X.i ;.OXX.b ....G X.0.9.+.[ N                                       ",
"                                  ; $.2XbX1XB | r.7 0 9 & [ O.8 9 OXS f  XS G G S G ,.0.8.O.B                                   ",
"                              + ] oX3Xr.| ' c 8 _ M 2X' +.w.}.a.$.e.}.N [ ,.V G S b D H X.,.8...[                               ",
"                            : +X1X.XoX8.- 9 Z }.O.5X3X1X1XOX X X2X+X+X X].{.$.+.;.D n f S +.0.0.+...                            ",
"                        + t 1X.Xs G .X.X1.}.+X1X2Xi.2.2.2.y.p.}.|.p.p.y.y.a.a.'.6.4.<.D o.0.n c 0.8.O.X.                        ",
"                      + ] oXq.k u C }..X2X}.t.U U 2.a.<X=X*X%X(.I.J./._.6.a.3.U 2.4.5.w.,.<.8 7 D X.8.>.>.                      ",
"                    +  .2Xi.& 7 1..XOXa.>.K P }.gXBXMXMXqX8XI.L.L.D.Z.Z.V.V.x.N.2.U P 4.5.7.<.G k u +.8.,.,.                    ",
"                  +  .|.>.X.B >.2X X .j F +XZXCXNXtX*X$X$XQ.W.M.G.v.n.l.( A.s.C.C.S.1.I ;.*.w.9...b ..,.+.8.9.                  ",
"                $ { XXG 7 Z XXXX6.n j r.SXDXZXgX`.`.%X%X(.J.I.J.G.D.S.c.c.k.( x.f.V.6XM.I K  .6.9.0.Z % X.8.,.,.                ",
"                m p.;.k S <.}.*.y j 5XHXDXfX#X`.;XyXuXrXrXJ.I.L.G.G.S.F.Z.k.s.k./ ( A.7X7X4.l ] ).9.X.8 k X.8.>.                ",
"              1 u.<.* 8 q.|.$.- C SXGXSX:X#X;XkXkXtX%X(.I.M.b.P.M.S.S.c.x.x.s.x.Z.v.( N.D.0XR.l A ).0.,.S u o.8.O.              ",
"            # ,.u.X.z X.|.$.- Z GXGXcX:X,XlXkXyXtX(.W./.Q.G.n.D.v.z.c.x.( f.s.x.F.F.D.N.=.P.0XQ.i A ).0...s o.e.+.[             ",
"            Z e.v b 0.u.$.= A GXFXxX`.xXZXiXkXtX$X(.I.H.M.P.l.l.x.( k.x.f.f.x.A.S.S.G.L.G.T.J.wX`.i ] ].9.8.c B 9...            ",
"          : 0.o.h b 9.w., a HXFXnX,XnXlXgX;X$XR.W.T./.M.b.b.N.( ( ~ ( ~ ~ g.x.x.n.G.G.P.I.W.Q.(.wXE.y } }.9.8 = <.8.B           ",
"          [ ,.S S o.e.r - nXFXxX,XnXnXgXpXkXR.R.T.Y.W.Y.H.l.v.G.c.( ( f.f.g.( k.l.v.L.H.H.8XI.Q.uXVX] - *.}.X.S G ,.O.          ",
"        > 8.X.& n e.} % ).FXSX<XxXnXfXzX;X$X&XW.Q.Q./.G.L.P.J.c.h.V.A.f.x.k.l.( z.G.b.N.8X%X%X^./.jXNXg x {.0.H u ..8.M         ",
"        N 8...B >.w.* x GXSX-.xXDXsXiXfX-X(.^.T.$XJ.9XJ.E.[ e ; e H ~ s.f.c.c./ l.n.l.Y././.rXuX@X!.AX^.= #.}.>.b ,.i.'         ",
"      : O.G s O.0._ % :XGXxX[.nXSXxX-X^.&.*.!.hXqX8X'.L h - * p H } s.f.~ g.K.P.N.l.Y.n.I.rXrXrXyXyXiXAXN - {.u.7.c ,.+.1       ",
"      e O.V k G -.* m GXSX,XDXcXfX-X;X&XR.*.| | &.@X{ N T 4 T @.! ~ ( =.$.c.S.l.J.M.%.b.^.%X/.iXaX=X#XAX;X* #.oX>.& G u.r       ",
"      N X.F G O.| & #XGXmXmXSXcXsX#X^.-X^.&XT.` r > : 5 4 Y T T N Z I P A V.n.m.D.I.M.Q.~.T.tX&XtXkX=XsXDXx >  X0.S D 0.[       ",
"    < [ H - v w.2 - HXDXxXSXSXcX!.;X(.E.@XJ.T.*.$.#.Y 5 < > c Z [ X. .#.s.U.n.T.~.G./.R.Y.T.uX&X*XzXgX`.DX&.* 5..Xo.y >.7.#     ",
"    2 ..Z z ..| * } GXSXxXDXnXcXzX(.!.!.*X%X$XN.%._ B _ _ T Y Y Y W E E #.B G X.:./ 9X(.R.$X&XtXsXfXzXfXZXtX* ` 2X>.s ,.e.:     ",
"    e ..n Z O._ % [.GX,XxXSXgXzXfX#X^.!.uXqX/.~.T.T.~ Y 1 , * , > x x n C ..;.:.b j.8XrX&XQ.^.;X:XdXcX#X-XZXw >  X.X8.q.|.1     ",
"    M ' f b | _ * nXGX,XxXcXgXiX/.Q.rX(.G.@XL.P.l.| | $.( E q 4 r t N [ { { $./ K.(.=.W.!.{ R.&X:XzXZX`.@XAXQ * {.XXx w XX_     ",
"    m B F G | e > HXHXxXSXsXjXNXiXE.[.^.E.-./.H.L.7XB._ f C _ Q Y T Y E E E E ^ #.N C C Z ;.o.( zXzXlX:X`.ZXY.% 5.2Xp u |.}     ",
"  : m Z F v | : r GXDX,XcXBX<X0.,.;.;.J o.X.X.....#.b.V.B.) > 7 - = ; : 3 e z p c B {  .<.:.w H.ZXcXzXjX=XBXQ.% &.3X;.k u.4..   ",
"  : m Z 9 p | , _ GXSXcXZX{.L ;.o.+.o.+.o.H G S S k i b ` z.B.A.) 4 , = - a d n Z D H H A ! /.SXZXBXBXkX=XjX/.% } bXX.7 q.6..   ",
"  3 M N n B | * ` GXcXgX:XF ;.,.;.o.S b M N R T T Y T e 7 7 a W c.D.S.c.v.( ! / #.( &.~.J.$X[.E.).'.:XkX#XkX$X* } 3Xe.Z oXw.o   ",
"  : m M v c ] * ` FXxXgXkX%.[ [ B Q j.b.~.T.R.Y.Y.l.j.g.d.g.E 1 % & 2 ! ^ l.b.b.b.W.T.E.$.Z A H D :.D c.:XjX*X* Q 1X}.-.1X4..   ",
"  3 m c k b ` , _ FXzXfXlXNX8XJ.n.I.,Xe.<.;.J H G V Z ' ` ! g.A.K.j.1 % = 7 8 a z d v C Z X.>.>.t.L t %X#XjX@X* #.bXZ & |.]..   ",
"  2 m x L b ` > r FXxX!.kX*XtXI.^.9.L o.X.X.{ X.G v z 8 - - = = T m.L.U.^ r z a s C Z G H H X.D A E eXzX&.aX/.% =.bX{ u XX5..   ",
"    2 B k 8 } w 3 DXgXE.aXaX%X8X$.I ;.o.H G d w 4 T _ M q q q 5 * * 7 #.yXwXU.l.%.! } } } ` } l.G.zXvX$X@XNXY.% *.4XH k oX*.    ",
"    x m s a ' r * lXZX=X=XuX%X%Xm.! N _ Q W ) z.*.7.-.+.$.| | ` @.! ! T N | #XCXCXiX!.yXkX-XpXBXgX:X*X*X@XNX} * '.1XV y 4XQ     ",
"    m 2 B M r _ * #XAXtX*X%XuXI./.U.v.K.Z.F.>Xi.:.o.o.o.S s s y - , 5 ^ j.N.%.~.rX#XY.;XnX=X!._.iXaXaX!._.NXe , +X4Xq.7.bX4     ",
"    m 3 x f x _ * %.AX-X%XuX(.M.G.b.l.G.n.A.X.F H G b e T _ _ T T T 5 ; : _ &.^.pXaXiXcX#X`.=X-X-XsX*X@X*XuX- t 3Xa.x .X1X@     ",
"    M 2 a F v T w e CXyX$X/./.H.U.l.m.v.n.F.d.Q W E ) h.).w.+.7.+.| } ` ! ! ` #.*.-XlX;X!.-XBXiXtXtX*X_.NXT.* #.bXB & }.+XO     ",
"      2 3 L V r R = (.NX!.Q.I.J.M.l.z.l.l.k.x.S.F.B.P.y.P J S d z e w > ; # T @.#.$XfX#X!._.#XsXiXuX@X_.NXN * '..XS F 1X#.      ",
"      M 3 b 7 z Q - ` CX(.W.I.P.m.v.c.( ( l.z.s.k.N.k.R N t W @.@.Q E W $.` Y 2 ` %.gX;X&.=X=XiXyX@X&.hX%X- R 4X,.u H 4X<       ",
"      [ < x b 3 T m - rXeXR.N.P.G.n.z.g.k.k.( x.f.k.H.v.k.I.{.+.n > > C v ~.AXzX$X` @.!.iX-X=XaXtX@X@XVX} * *.1X0.y }.+XO       ",
"        x < x v > ` - Q wXH.&.U.S.S.z.k.f.f.~ ( v.K.c.( P.).i - + * e R z.jXzX#X:X,X!.(.-X=X-XaX*X_.eX(.y t  Xu.{ r.4XR         ",
"        [ < z F p 4 _ - S.eXn.G.D.c.Z.x.~ ~ f.~ #.( v.n.P.S.~ E ! l.J.yXzX@XE.!.^.-XiX#XiX-XyX*X*.@XwXA - ).oXc & i.oX@         ",
"          x # D L > W p w qX9Xl.v.A.x.h.k.s.s.k.k.#.v.G.T./.uX$XjXaXjX#XE.^.^.;XiX#XiXsX-XpXtXE.).wXT.y Q OX<.f b oX}           ",
"          X.# n i 8 r Q y _ eXZ.l.k.x.k.h.s.x.x.j.v.D.n.N.%.W.W.T.@X^.R.!.$XiXfX#X#XgXdXdXsX@X!.eX%Xi t +Xi.S i t.oXO           ",
"            M # c n : 4 ] g / 7XS.( k.B.s.k.x.z.S.m.n.v.b.M./.rXR.W.W.!.&X-XfX;X#XgX:XiXaX@X).wXhXj w E.|.e.u n 2Xt             ",
"            ,.: ; x V , q ] i ( 7XA.( ~ z.A.x.c.K.v.n.G.b.M.Q.W.(.(.&XiXiX;X:XgXkXkXsX-X).@XeXhXC g R.|.O.c >.XXr.X             ",
"              +.$ > F D > Y [ i / 6XV.~ k.x.n.K.D.J.P.J.P./.(.rX&XyX=XiXzXfXfXzXzXjX=X*.@XwXuXD j &.i.<.- = p.|.@               ",
"                [ O c P s > Y ] l ] V.C.A.( N.c.G.L.L.H.I.(.%XrX$XiXaXgXzXBXzXkX=X-X_.*XwX#Xl C E.e.;.C k ;.XX1                 ",
"                i.m $ v f e % q / I I k.C.Z.n.M.%.&./.J.(.(.uX-XhXjXiXzXfX<X:X=X#XyXVXMX4.K H E.0.<.Z y H XXt X                 ",
"                  i.e $ x e 1.w 6 ! :.I 4.S.6X7XJ.N.N.Q.I.Q.%X$X`.iX=X`.#X>X#XkXVXNX`.P K 4.).8.;.d C X.|.] X                   ",
"                    9.3 O p I S d ; q 4.U U 4.H.7X9X8X8X8XrXrX*X#X-XkXfXBXCXCXaX'.:.U 1.E.-.o...C f J |.] X                     ",
"                      8.m $ > f D A > < Q r.3.3.t.'._.%XrXqXMXMXNXNXBXlXgX<Xa.3.U q.w.*.O.X.Z a c t.u.r X                       ",
"                        +.M # > f C Z p , 5 ` 7.y.y.y.y.p.u.}.+X X}.u.p.y.3.y.a.6.$.| C v n C X.;.0.1 X                         ",
"                            B < ; a b x z s ; < q ` 5.w.}.}.|..XoX.X}.}.].*.$.` B v Z a 9 8 G q.O.@                             ",
"                              ' 3 ; 1 > b S 5 a a , ; 2 r T ` ` ` ` ` _ m M v G a 9 v G B ,.+.2 o                               ",
"                                  r 1 > z 3 > S c V S a a s s f a b f b V M 8 n [ p G >.+.M O                                   ",
"                                      1 < < 3 c a z S p p S f S v b v 8 n p s n { O.[ 2 #                                       ",
"                                          < < ; 1 3 2 x z z x x v n n B ' [ [ M e < O                                           ",
"                                                @ # 6 ; < 5 2 2 2 2 2 2 1 ; # O                                                 ",
"                                                          @ O @ @ O O                                                           ",
"                                                                                                                                "
};
