/* XPM */
static char *_171c94d2f4741b7ac75c890f414ba00HMUzGk0dZjkc6Vid[] = {
/* columns rows colors chars-per-pixel */
"32 32 239 2 ",
"   c None",
".  c #915818",
"X  c #8D5516",
"o  c #9B621A",
"O  c #A7650E",
"+  c #A56A1C",
"@  c #AE7110",
"#  c #B97913",
"$  c #B2741A",
"%  c #B77917",
"&  c #9C6A28",
"*  c #9A6E30",
"=  c #AD7224",
"-  c #A8742B",
";  c #B37925",
":  c #B57C2B",
">  c #B77B21",
",  c #AB7B37",
"<  c #B17C36",
"1  c #AE6F27",
"2  c #C47E18",
"3  c #A67E44",
"4  c #AD7D49",
"5  c #BA841A",
"6  c #BC8125",
"7  c #BB8429",
"8  c #B98533",
"9  c #BA8938",
"0  c #BF903E",
"q  c #CA8918",
"w  c #D48D1A",
"e  c #D8971C",
"r  c #C3800C",
"t  c #E3A11D",
"y  c #EDB717",
"u  c #C58822",
"i  c #C2862B",
"p  c #C48B2A",
"a  c #C98A28",
"s  c #CA942A",
"d  c #DC9B24",
"f  c #D59A2A",
"g  c #CC9332",
"h  c #C4943D",
"j  c #CC9A3C",
"k  c #CC9937",
"l  c #D29E3B",
"z  c #D49735",
"x  c #C18F37",
"c  c #D6A42A",
"v  c #DDA232",
"b  c #D6A33D",
"n  c #D9A837",
"m  c #DCB137",
"M  c #CBA032",
"N  c #E2A52D",
"B  c #E7AA2A",
"V  c #E9AC27",
"C  c #F5B82B",
"Z  c #E4AA37",
"A  c #ECB336",
"S  c #EBB33D",
"D  c #E2B43D",
"F  c #F1B836",
"G  c #EEB02D",
"H  c #FFC116",
"J  c #FFCC31",
"K  c #E9C03D",
"L  c #B68B4B",
"P  c #B78A46",
"I  c #B89048",
"U  c #AD895A",
"Y  c #B28B5B",
"T  c #BC9956",
"R  c #BDA65E",
"E  c #AB8B6A",
"W  c #B99969",
"Q  c #AC9D7E",
"!  c #AB9179",
"~  c #BCA372",
"^  c #B8A47A",
"/  c #BAA167",
"(  c #CD9C43",
")  c #C29543",
"_  c #C39D54",
"`  c #D09F47",
"'  c #CDA74B",
"]  c #D8A846",
"[  c #DEB647",
"{  c #CBA354",
"}  c #C9A55B",
"|  c #D6AD58",
" . c #DCBA53",
".. c #D8B75B",
"X. c #E1AE48",
"o. c #EBB543",
"O. c #E4BB4B",
"+. c #E7B54B",
"@. c #E6BB5B",
"#. c #ECBD59",
"$. c #E5B856",
"%. c #F0BF46",
"&. c #C7A869",
"*. c #CAB36E",
"=. c #DBBD65",
"-. c #D9B867",
";. c #C4AC7A",
":. c #C5A778",
">. c #CAB478",
",. c #D6BB72",
"<. c #D1AE6B",
"1. c #E1BB6B",
"2. c #BFC47D",
"3. c #ECC849",
"4. c #F6C74A",
"5. c #FAD64B",
"6. c #EAC758",
"7. c #F2C354",
"8. c #F0C55D",
"9. c #F5CE58",
"0. c #ECD45C",
"q. c #F8D55B",
"w. c #E5D14C",
"e. c #FDE85B",
"r. c #DAC379",
"t. c #DDD070",
"y. c #E9C867",
"u. c #F5CD69",
"i. c #ECD96E",
"p. c #F3D369",
"a. c #F5D468",
"s. c #E6CB77",
"d. c #E8D47A",
"f. c #F6D975",
"g. c #F8E779",
"h. c #FFF87E",
"j. c #F5E96F",
"k. c #9B979A",
"l. c #A79C87",
"z. c #A29E97",
"x. c #BCA883",
"c. c #B3A789",
"v. c #BCB68B",
"b. c #ACA393",
"n. c #A4A29D",
"m. c #AAA797",
"M. c #B5AB95",
"N. c #B4AC9C",
"B. c #B7AB96",
"V. c #BEB297",
"C. c #ABA188",
"Z. c #999AA7",
"A. c #8F98A8",
"S. c #A29CA4",
"D. c #ADAAA3",
"F. c #AAACAB",
"G. c #A7A6A8",
"H. c #B4AEA1",
"J. c #BAB4A5",
"K. c #B6B2AA",
"L. c #BAB5A9",
"P. c #A6AAB6",
"I. c #B4AEB5",
"U. c #B9B9B3",
"Y. c #AEB0B2",
"T. c #C4B28A",
"R. c #CEB78B",
"E. c #C8B284",
"W. c #D4BB88",
"Q. c #C3B394",
"!. c #CCBD9C",
"~. c #C7B899",
"^. c #D2BD93",
"/. c #D0BF9F",
"(. c #C0AD87",
"). c #C3BCAC",
"_. c #CCBDA8",
"`. c #C1BDB6",
"'. c #BFC9A9",
"]. c #D8C69D",
"[. c #D9DC97",
"{. c #EAD48B",
"}. c #E4E788",
"|. c #F4E483",
" X c #FCF79A",
".X c #EBE096",
"XX c #CBC2AD",
"oX c #D2C5A5",
"OX c #D2C5AA",
"+X c #D8CBAE",
"@X c #CBC3B4",
"#X c #C6C4BD",
"$X c #CCC9BC",
"%X c #CCC6BA",
"&X c #D4CAB3",
"*X c #D4CCBC",
"=X c #D0C6B4",
"-X c #DCD1B9",
";X c #DBDBA6",
":X c #E5D9BC",
">X c #E6DBAD",
",X c #E5E6A7",
"<X c #EAF0B0",
"1X c #9CA4C3",
"2X c #B3BAC5",
"3X c #B9B8C8",
"4X c #ABAFC6",
"5X c #C2BEC5",
"6X c #BFC1C6",
"7X c #BDC9D5",
"8X c #B6C1E4",
"9X c #C5C6C4",
"0X c #CDCAC2",
"qX c #CDCDCA",
"wX c #C9C6C7",
"eX c #D4CEC2",
"rX c #D0CECC",
"tX c #D6D1C3",
"yX c #D4D3CB",
"uX c #DCD6C7",
"iX c #C6C9D6",
"pX c #D2CDD5",
"aX c #CCD2D8",
"sX c #D5D5D1",
"dX c #D9D9D8",
"fX c #CDD2CF",
"gX c #E3D9C5",
"hX c #E4DED4",
"jX c #E8ECC8",
"kX c #EBEDCD",
"lX c #D2DAE7",
"zX c #C9D3E8",
"xX c #D9E4F7",
"cX c #E2E2E2",
"vX c #E6EAEA",
"bX c #F3F4EB",
"nX c #EBF4FB",
"mX c #F7FFFF",
"MX c #FAFEFB",
/* pixels */
"                            ; 8 7 ;                             ",
"                      I -.d.|.a.i.#.X.] j                       ",
"                  { .X{.8.z $.Z 8.7.o.A 4.8.X.                  ",
"              9 .X Xz b -.y.9.f.g.f.8.+.N V 7.y.$.              ",
"            <.q.S  X6.e.h. X,X,X;X[.}.j.e.O.8.d S 8.            ",
"          -.f.v f.3.q.,X-XiX3XY.P.S.k.m.2.0.5.6.t +.u.          ",
"        ' 4.A |.c d.vXaX$X9XL.L.H.m.m.k.k.F.-.K f.d N u.        ",
"      9 e.c p.5 >XnXuXtXqXU.L.H.D.n.k.n.m.N.4X^ m u.t #.@.      ",
"      7.C u.5 :XmXgXsX=XQ.Q.B.M.C.Q l.z.F.U.V.8X:.n f.e #.      ",
"    ` A o.a R.MXgXdXrXQ.E.K.U.c.Q l.l.^ c.L.U.XXzXT @.o.F |     ",
"    X.S X.P bX:XcX=XR.!.7X].( % T k.b.N.x.x.U.9XrXeXx f.o.$.    ",
"  8 G S > _.MXhXeX_.R.<.&.p + h | 3.c.1XK.T.~.$X*XxXW  .+.A x   ",
"  h n f P bXbXcX=X/.9X~.( - - 9 l ' ~ @.>.U.).#XtXcX_.h f.5.`   ",
"  g S u &.MXgXlXwX).5X3XJ.} i 1 , ) [ O.;.L.W.].dXuXtXI i.8...  ",
"1 f G # R.mXdX:Xs.s.#.-.;.x.~ L ; + ; P ' t C >.xXsXsXY y.A  .  ",
": g z # ].nX{.y C N l l k ) E E U P L ' | ,.;.!.:XtXlXU -.g.y.* ",
": a Z % ].nXXX*.;.W.1...{ I P L ! E L P _ } $.J y &.lXY =.|.r.& ",
": s B @ ~.hXrX8X,.J C k j z : 4 U W :.T j l ] ..T.9XyXU r.F y.  ",
"  p a # :.vX#X6X(./ l.*.7.o.j 8 = , E.aXaXXXeX).lX*X%XP d.g.,.  ",
"  : d u L lX%XL.H.H.P.-.b _  .b j < , _ eXdX+X*XeX0XV.h s.f.*.  ",
"  8 e z $ ).0XL.N.^ x.k.A.v.3.$.( 7 8 L :.+X/.yX=XfXE  .4.7.3   ",
"    ; q 5 T iXV.F.z.Q l.M.m.M.j O 8 oXsXR.R.&XyX$X#X8 {.9.d.    ",
"    8 q z % V.2Xm.n.l.l.~ H.J.^ B.%X@XoX*XtXyXoXfXW  .+.q.R     ",
"      > q ; s Y.G.l.k.z.b.B.x.@X&X!./.eX-XyX&XiXv.M |.C i.      ",
"      ] O d 6 M F.A.C.D.Y.K.V.).XX$XdXuXsXOXiXoXc p.c h.*       ",
"        h 2 a 7 m v.Z.G.B.J.`.9XqXyXuXyXiXiXr.m y.B 5.I         ",
"          : @ c 7 m t.XXK.U.3X3XwXaXfXyX,Xi.7.$.B 5.{           ",
"            7 # e 6 M w.}.,X<XjXjXjX<Xg.5.[ z B q.P             ",
"              8 $ q 2 = s m 6.y.p.6.D ] a d N +.-               ",
"                  = ; u e r 2 w w w w d Z b 8                   ",
"                      o + = 6 u u i 7 : &                       ",
"                            X . . .                             "
};
