/* XPM */
static char *_c4cde5669a847a19514aa55fb5b8a2fHy7DM4JHxFwWqF0B[] = {
/* columns rows colors chars-per-pixel */
"16 16 189 2 ",
"   c None",
".  c #96540A",
"X  c #A55F08",
"o  c #A9640B",
"O  c #BF7703",
"+  c #B9720B",
"@  c #BB780E",
"#  c #A26114",
"$  c #AB6914",
"%  c #B3761C",
"&  c #B77D24",
"*  c #A67336",
"=  c #C47D08",
"-  c #C17A0D",
";  c #AB7A42",
":  c #BF8422",
">  c #BE8427",
",  c #B7842C",
"<  c #BD882B",
"1  c #BE8A3B",
"2  c #C5810B",
"3  c #C48613",
"4  c #D49613",
"5  c #D69518",
"6  c #C78525",
"7  c #C58826",
"8  c #C98C20",
"9  c #C38829",
"0  c #C3892A",
"q  c #C6892B",
"w  c #C78C29",
"e  c #CF9020",
"r  c #CB952A",
"t  c #CC942F",
"y  c #DB9821",
"u  c #D2972E",
"i  c #D59F3C",
"p  c #DAA12F",
"a  c #DFA828",
"s  c #D7A93E",
"d  c #E8AC2C",
"f  c #E7B02E",
"g  c #EDB42D",
"h  c #E6AF32",
"j  c #EBB331",
"k  c #EBB13F",
"l  c #F2B833",
"z  c #F5BB38",
"x  c #EEC43F",
"c  c #FCC235",
"v  c #F9C038",
"b  c #FBCD3F",
"n  c #B38841",
"m  c #BB9453",
"M  c #AD8E63",
"N  c #BC9B65",
"B  c #B7986B",
"V  c #A68870",
"C  c #BFA373",
"Z  c #BFA575",
"A  c #BEAA73",
"S  c #BEAB7B",
"D  c #C29D5A",
"F  c #C7A247",
"G  c #DEA940",
"H  c #D4A949",
"J  c #D1AE4E",
"K  c #DDB147",
"L  c #DEB247",
"P  c #DEB34A",
"I  c #CBA855",
"U  c #CAA558",
"Y  c #D0A55C",
"T  c #D1AC5A",
"R  c #D4AF5C",
"E  c #D5B055",
"W  c #DAB65F",
"Q  c #E1AB43",
"!  c #E1AC48",
"~  c #EABC45",
"^  c #E7B64B",
"/  c #F1B944",
"(  c #C5A760",
")  c #C2A265",
"_  c #D5B066",
"`  c #D1BF67",
"'  c #C0A97C",
"]  c #CEBE7D",
"[  c #E0BD61",
"{  c #EDC048",
"}  c #F0C447",
"|  c #F8C446",
" . c #F4CB4B",
".. c #F3CA4D",
"X. c #FFD34B",
"o. c #E2CB5B",
"O. c #EAC95B",
"+. c #EDC85C",
"@. c #F2CF54",
"#. c #FFDD52",
"$. c #FEDE57",
"%. c #F7D25E",
"&. c #DBC06E",
"*. c #E3C967",
"=. c #EDCC64",
"-. c #EBCC69",
";. c #FADB66",
":. c #FFDF6A",
">. c #FFE16A",
",. c #F6E171",
"<. c #FFEB74",
"1. c #8E8E9D",
"2. c #A29682",
"3. c #A19584",
"4. c #A29B8D",
"5. c #A49C8C",
"6. c #B5AA8F",
"7. c #B7AB8F",
"8. c #B5B088",
"9. c #ABAC96",
"0. c #ABA59E",
"q. c #B7A992",
"w. c #BBAE92",
"e. c #B2AB98",
"r. c #BAAD98",
"t. c #A09DA0",
"y. c #9FA8B1",
"u. c #9CA6BB",
"i. c #AFACA2",
"p. c #B2ABA0",
"a. c #BBB1AA",
"s. c #ACA7B1",
"d. c #ADACB4",
"f. c #A3AEBD",
"g. c #BDB9BC",
"h. c #C8B484",
"j. c #CAB684",
"k. c #C8B68E",
"l. c #CCB88D",
"z. c #D5BE8E",
"x. c #C3B497",
"c. c #C1B3A4",
"v. c #CBBEA1",
"b. c #CABCA2",
"n. c #C3BFAC",
"m. c #C2C68B",
"M. c #CEC089",
"N. c #DCCB93",
"B. c #E3D391",
"V. c #C0C3AD",
"C. c #C5C0AD",
"Z. c #D3C0A0",
"A. c #DBC7A5",
"S. c #CFD3A8",
"D. c #C9C3BB",
"F. c #CBC4BE",
"G. c #D1CBB8",
"H. c #D3CAB8",
"J. c #D5CCB8",
"K. c #CFD2BD",
"L. c #EFDCA1",
"P. c #E5E5AF",
"I. c #E5E8B7",
"U. c #BEBEC3",
"Y. c #B4BCD5",
"T. c #C0BFD0",
"R. c #BDC5CE",
"E. c #C5C6C6",
"W. c #D6D0C4",
"Q. c #D8D2C5",
"!. c #DBD6C6",
"~. c #D6D1C8",
"^. c #D8D7CE",
"/. c #C8CAD7",
"(. c #CFCED4",
"). c #C6CCD9",
"_. c #DBD7D2",
"`. c #E0DFD1",
"'. c #D6E0D4",
"]. c #E4EBDC",
"[. c #CAD3E2",
"{. c #C7D4EB",
"}. c #D7D5E1",
"|. c #D1DBE2",
" X c #DAE3F6",
".X c #E1E2E6",
"XX c #EEF2FA",
"oX c #EDF5FF",
"OX c #ECFAFF",
/* pixels */
"            1 H i q             ",
"        &.-.%.>.<.X.z !         ",
"      +.$.,.P.K.V.m.o.v k       ",
"    ..x B..XT.d.t.1.y.] j /     ",
"  G g z.oXF.n.w.3.4.e.Y.j.l Q   ",
"  d Y XX~.k.) > ( i.r.E./.W |   ",
"0 5 A.OXD.C.m % r E j.b. Xl. ., ",
"w e _.L.^ _ Z M * < s [ `.c.O.F ",
"9 8 W.G.P h u ; V ' U ^ N.a.=.U ",
"0 2 v.{.6.A L p & B H.H.[.S ;.1 ",
"  = D R.0.4.9.R 3 N v._.U.T ;.  ",
"  6 O 7.u.2.e.7.x.~.!.).S $.J   ",
"    @ 3 8.u.s.g.(.}.|.M.| @.    ",
"      + 4 &.S.'.].I.*.c }       ",
"        $ - a ~ { f y t         ",
"            . o o #             "
};
